<svg xmlns="http://www.w3.org/2000/svg" viewBox="0 0 11.34 11.1"><defs><style>.cls-1{fill:none;stroke:#5171d6;stroke-miterlimit:10;stroke-width:0.75px;}</style></defs><g id="레이어_2" data-name="레이어 2"><g id="Isolation_Mode" data-name="Isolation Mode"><path class="cls-1" d="M8.26,4.15c-.19-.35-.39-.69-.6-1l.25,0c.47-.08.94-.14,1.42-.2a8.75,8.75,0,0,1,1.16-.15A10.35,10.35,0,0,1,8.73,5.1C8.58,4.78,8.42,4.46,8.26,4.15ZM10,9C8.82,8.58,7.66,8.1,6.5,7.6c.24-.19.48-.38.71-.58.48-.4,1-.82,1.41-1.27.28.63.54,1.27.8,1.91A7.91,7.91,0,0,0,10,9ZM4.44,8.74c-.51.39-1.11.75-1.61,1.18a.19.19,0,0,0-.06-.2c.26-1,.55-2,.84-3l1.28.62.88.4ZM2.85,5.85a13,13,0,0,1-2-1.26,6.59,6.59,0,0,1,.86-.27c.38-.12.77-.21,1.15-.3l1.17-.23c-.22.78-.45,1.56-.68,2.34Zm4.4-2.66A18.21,18.21,0,0,1,8.25,5l.2.42c-.49.48-1,.93-1.5,1.37l-.84.69-.82-.37c-.53-.23-1-.49-1.57-.76.25-.86.51-1.73.75-2.6l1-.18ZM5.16.89A7.88,7.88,0,0,1,7,2.85l-1.63.31-.81.15C4.79,2.51,5,1.7,5.16.89Zm5.67,1.49a8.48,8.48,0,0,0-2.29.22l-1.11.17A8.38,8.38,0,0,0,5.13.4a.2.2,0,0,0-.28.12c-.19,1-.43,1.92-.69,2.87-.54.1-1.08.2-1.61.32a5.39,5.39,0,0,0-2.12.72.19.19,0,0,0,0,.27A10.1,10.1,0,0,0,2.27,6c.32.19.66.38,1,.56-.34,1.15-.67,2.3-1,3.46a.18.18,0,0,0,.22.23l-.17.19c-.16.19.11.46.26.27A13.84,13.84,0,0,1,4.82,8.92l1.34-1a44,44,0,0,0,4.38,1.69.19.19,0,0,0,.19-.32A6.29,6.29,0,0,1,9.44,6.7c-.17-.41-.35-.82-.53-1.23a10.37,10.37,0,0,0,2-2.81C11,2.56,11,2.4,10.83,2.38Z"/></g></g></svg>
